<?xml version="1.0" encoding="UTF-8" standalone="no"?>
<!DOCTYPE svg PUBLIC "-//W3C//DTD SVG 1.1//EN" "http://www.w3.org/Graphics/SVG/1.1/DTD/svg11.dtd"
[
<!ATTLIST g
  xmlns:vectornator CDATA #FIXED "http://vectornator.io"
  vectornator:layerName CDATA #IMPLIED >
<!ATTLIST g
  xmlns:vectornator CDATA #FIXED "http://vectornator.io"
  vectornator:mask CDATA #IMPLIED >
<!ATTLIST text
  xmlns:vectornator CDATA #FIXED "http://vectornator.io"
  vectornator:width CDATA #IMPLIED >

<!ATTLIST path
  xmlns:vectornator CDATA #FIXED "http://vectornator.io"
  vectornator:blendMode CDATA #IMPLIED >
<!ATTLIST path
  xmlns:vectornator CDATA #FIXED "http://vectornator.io"
  vectornator:shadowColor CDATA #IMPLIED >
<!ATTLIST path
  xmlns:vectornator CDATA #FIXED "http://vectornator.io"
  vectornator:shadowOpacity CDATA #IMPLIED >
<!ATTLIST path
  xmlns:vectornator CDATA #FIXED "http://vectornator.io"
  vectornator:shadowRadius CDATA #IMPLIED >
<!ATTLIST path
  xmlns:vectornator CDATA #FIXED "http://vectornator.io"
  vectornator:shadowOffset CDATA #IMPLIED >
<!ATTLIST path
  xmlns:vectornator CDATA #FIXED "http://vectornator.io"
  vectornator:shadowAngle CDATA #IMPLIED >

<!ATTLIST image
  xmlns:vectornator CDATA #FIXED "http://vectornator.io"
  vectornator:blendMode CDATA #IMPLIED >
<!ATTLIST image
  xmlns:vectornator CDATA #FIXED "http://vectornator.io"
  vectornator:shadowColor CDATA #IMPLIED >
<!ATTLIST image
  xmlns:vectornator CDATA #FIXED "http://vectornator.io"
  vectornator:shadowOpacity CDATA #IMPLIED >
<!ATTLIST image
  xmlns:vectornator CDATA #FIXED "http://vectornator.io"
  vectornator:shadowRadius CDATA #IMPLIED >
<!ATTLIST image
  xmlns:vectornator CDATA #FIXED "http://vectornator.io"
  vectornator:shadowOffset CDATA #IMPLIED >
<!ATTLIST image
  xmlns:vectornator CDATA #FIXED "http://vectornator.io"
  vectornator:shadowAngle CDATA #IMPLIED >

<!ATTLIST g
  xmlns:vectornator CDATA #FIXED "http://vectornator.io"
  vectornator:blendMode CDATA #IMPLIED >
<!ATTLIST g
  xmlns:vectornator CDATA #FIXED "http://vectornator.io"
  vectornator:shadowColor CDATA #IMPLIED >
<!ATTLIST g
  xmlns:vectornator CDATA #FIXED "http://vectornator.io"
  vectornator:shadowOpacity CDATA #IMPLIED >
<!ATTLIST g
  xmlns:vectornator CDATA #FIXED "http://vectornator.io"
  vectornator:shadowRadius CDATA #IMPLIED >
<!ATTLIST g
  xmlns:vectornator CDATA #FIXED "http://vectornator.io"
  vectornator:shadowOffset CDATA #IMPLIED >
<!ATTLIST g
  xmlns:vectornator CDATA #FIXED "http://vectornator.io"
  vectornator:shadowAngle CDATA #IMPLIED >

<!ENTITY % SVG.filter.extra.content  "| feDropShadow" >
<!ELEMENT feDropShadow EMPTY>
<!ATTLIST feDropShadow
  xmlns:svg CDATA #FIXED "http://www.w3.org/Graphics/SVG/1.1/DTD/svg11.dtd"
  dx CDATA #IMPLIED>
<!ATTLIST feDropShadow
  xmlns:svg CDATA #FIXED "http://www.w3.org/Graphics/SVG/1.1/DTD/svg11.dtd"
  dy CDATA #IMPLIED>
<!ATTLIST feDropShadow
  xmlns:svg CDATA #FIXED "http://www.w3.org/Graphics/SVG/1.1/DTD/svg11.dtd"
  stdDeviation CDATA #IMPLIED>
<!ATTLIST feDropShadow
  xmlns:svg CDATA #FIXED "http://www.w3.org/Graphics/SVG/1.1/DTD/svg11.dtd"
  flood-opacity CDATA #IMPLIED>
<!ATTLIST feDropShadow
  xmlns:svg CDATA #FIXED "http://www.w3.org/Graphics/SVG/1.1/DTD/svg11.dtd"
  in CDATA #IMPLIED>
<!ATTLIST feDropShadow
  xmlns:svg CDATA #FIXED "http://www.w3.org/Graphics/SVG/1.1/DTD/svg11.dtd"
  result CDATA #IMPLIED>
<!ATTLIST feDropShadow
  xmlns:svg CDATA #FIXED "http://www.w3.org/Graphics/SVG/1.1/DTD/svg11.dtd"
  flood-color CDATA #IMPLIED>
]
>
<!-- Created with Vectornator (http://vectornator.io/) -->
<svg height="100%" stroke-miterlimit="10" style="fill-rule:nonzero;clip-rule:evenodd;stroke-linecap:round;stroke-linejoin:round;" version="1.1" viewBox="0 0 1080 1080" width="100%" xml:space="preserve" xmlns="http://www.w3.org/2000/svg" xmlns:vectornator="http://vectornator.io" xmlns:xlink="http://www.w3.org/1999/xlink">
<defs>
<clipPath id="TextBounds">
<rect height="945.819" transform="matrix(1 -0 -0 1 -340.902 -215.738)" width="739.098" x="340.902" y="215.738"/>
</clipPath>
</defs>
<clipPath id="ArtboardFrame">
<rect height="1080" width="1080" x="0" y="0"/>
</clipPath>
<g clip-path="url(#ArtboardFrame)" id="Layer-2" vectornator:layerName="Layer 2" visibility="hidden">
<path d="M-61.9322-84.249L1136.47-84.249L1136.47 1129.74L-61.9322 1129.74L-61.9322-84.249Z" fill="#ffffff" fill-rule="evenodd" opacity="1" stroke="none"/>
</g>
<g id="Layer-3" vectornator:layerName="Layer 3">
<path d="M59.2892 255.674C61.4492 323.122 63.3006 368.91 64.8435 393.04C66.3863 417.17 68.392 440.573 70.8606 463.249C73.3291 485.926 76.5691 507.148 80.5805 526.918C84.5919 546.687 89.0662 565.584 94.0033 583.608C98.9404 601.633 105.42 621.984 113.443 644.66C121.466 667.336 129.026 686.669 136.123 702.659C143.22 718.648 151.706 735.656 161.58 753.68C171.454 771.705 182.1 788.858 193.517 805.138C204.934 821.419 216.505 835.809 228.231 848.31C239.957 860.811 251.682 871.713 263.408 881.017C275.134 890.32 286.705 898.169 298.122 904.565C309.539 910.961 318.333 915.322 324.505 917.647C330.676 919.973 337.619 922.008 345.333 923.753C353.047 925.497 362.305 926.369 373.105 926.369C383.904 926.369 395.013 924.77 406.43 921.572C417.847 918.374 428.956 913.868 439.756 908.054C450.555 902.239 460.43 895.989 469.378 889.302C478.327 882.616 488.664 873.603 500.389 862.265C512.115 850.927 522.606 839.589 531.864 828.251C541.121 816.912 549.606 805.429 557.321 793.8C565.035 782.171 572.286 770.106 579.075 757.605C585.863 745.104 593.578 729.26 602.217 710.072C610.857 690.885 617.8 674.313 623.046 660.359C628.292 646.404 635.389 624.164 644.337 593.638C653.286 563.112 659.303 540.291 662.389 525.173C665.474 510.056 668.097 494.793 670.257 479.385C672.417 463.976 675.04 434.032 678.126 389.552C681.211 345.071 683.371 306.114 684.606 272.681C685.84 239.248 686.457 211.194 686.457 188.517C686.457 177.179 686.457 165.841 686.457 154.503C581.389 154.503 476.321 154.503 371.253 154.503C266.185 154.503 161.117 154.503 56.0492 154.503C57.1292 188.227 58.2092 221.95 59.2892 255.674Z" fill="#e1422c" fill-rule="evenodd" opacity="1" stroke="none"/>
<path d="M257.854 314.109C230.082 316.435 209.871 318.761 197.22 321.087C184.568 323.412 172.843 326.029 162.043 328.936C151.243 331.843 143.992 334.75 140.289 337.658C136.586 340.565 133.963 343.327 132.42 345.943C130.877 348.56 129.797 352.775 129.18 358.59C128.563 364.404 129.18 369.346 131.032 373.416C132.883 377.487 135.043 380.685 137.512 383.01C139.98 385.336 143.22 387.371 147.232 389.115C151.243 390.86 155.717 391.732 160.654 391.732C165.591 391.732 172.843 390.424 182.408 387.807C191.974 385.191 206.477 382.429 225.917 379.522C245.357 376.614 261.557 374.725 274.517 373.853C287.476 372.98 303.059 372.544 321.265 372.544C339.47 372.544 357.985 373.271 376.807 374.725C395.63 376.178 416.767 378.94 440.218 383.01C463.67 387.08 485.887 392.313 506.869 398.709C527.852 405.105 547.446 412.519 565.652 420.949C583.858 429.38 595.12 433.596 599.44 433.596C603.76 433.596 607.772 432.869 611.475 431.415C615.177 429.962 618.417 428.072 621.194 425.746C623.972 423.421 626.286 420.513 628.137 417.025C629.989 413.536 630.914 408.739 630.914 402.634C630.914 396.529 630.143 392.023 628.6 389.115C627.057 386.208 625.052 383.592 622.583 381.266C620.114 378.94 612.246 374.434 598.977 367.747C585.709 361.061 569.201 354.229 549.452 347.252C529.704 340.274 512.115 334.896 496.687 331.116C481.258 327.337 463.67 323.848 443.921 320.65C424.173 317.453 405.813 315.127 388.842 313.673C371.87 312.22 352.739 311.347 331.448 311.057C310.156 310.766 285.625 311.783 257.854 314.109Z" fill="#ffffff" fill-rule="evenodd" opacity="1" stroke="none"/>
<path d="M253.688 429.671C229.311 432.288 208.483 435.776 191.203 440.137C173.923 444.498 163.894 447.841 161.117 450.167C158.34 452.493 156.334 454.819 155.1 457.144C153.866 459.47 153.094 462.959 152.786 467.61C152.477 472.262 153.249 476.477 155.1 480.257C156.951 484.036 159.883 487.234 163.894 489.851C167.906 492.467 172.534 493.921 177.78 494.211C183.026 494.502 191.666 493.048 203.7 489.851C215.734 486.653 229.003 484.036 243.505 482.001C258.008 479.966 269.734 478.658 278.682 478.076C287.631 477.495 301.671 477.349 320.802 477.64C339.933 477.931 358.91 479.239 377.733 481.565C396.556 483.891 414.607 487.089 431.887 491.159C449.167 495.229 465.521 500.026 480.95 505.549C496.378 511.073 510.109 517.033 522.144 523.429C534.178 529.825 541.892 533.604 545.286 534.767C548.681 535.93 551.921 536.511 555.006 536.511C558.092 536.511 561.332 535.93 564.726 534.767C568.121 533.604 570.743 532.296 572.595 530.842C574.446 529.389 576.298 527.208 578.149 524.301C580 521.394 581.08 517.324 581.389 512.091C581.698 506.858 581.235 502.933 580 500.316C578.766 497.7 576.915 495.229 574.446 492.903C571.978 490.577 564.263 486.071 551.303 479.385C538.344 472.698 526.001 467.029 514.275 462.377C502.549 457.726 487.584 452.783 469.378 447.551C451.173 442.318 435.127 438.393 421.241 435.776C407.356 433.16 392.39 430.979 376.344 429.235C360.299 427.491 341.939 426.473 321.265 426.182C300.591 425.892 278.065 427.055 253.688 429.671Z" fill="#ffffff" fill-rule="evenodd" opacity="1" stroke="none"/>
<path d="M258.779 538.256C235.945 540.581 216.505 543.489 200.46 546.977C184.414 550.466 175.003 553.809 172.226 557.007C169.449 560.205 167.906 563.985 167.597 568.345C167.289 572.706 167.906 576.34 169.449 579.247C170.991 582.155 173.46 584.626 176.854 586.661C180.249 588.696 183.334 589.859 186.111 590.149C188.888 590.44 195.677 589.423 206.477 587.097C217.277 584.771 230.391 582.591 245.82 580.556C261.248 578.521 281.151 577.212 305.528 576.631C329.905 576.049 350.116 576.631 366.162 578.375C382.207 580.12 396.71 582.445 409.67 585.353C422.63 588.26 435.127 591.748 447.161 595.819C459.195 599.889 472.773 605.703 487.892 613.262C503.012 620.821 512.578 624.6 516.589 624.6C520.601 624.6 523.995 623.873 526.772 622.42C529.549 620.966 531.864 619.076 533.715 616.751C535.566 614.425 536.801 612.099 537.418 609.773C538.035 607.447 538.189 604.976 537.881 602.36C537.572 599.743 536.184 596.691 533.715 593.202C531.246 589.713 524.458 585.062 513.349 579.247C502.241 573.433 490.824 568.2 479.098 563.548C467.373 558.897 453.487 554.391 437.441 550.03C421.396 545.669 408.127 542.616 397.636 540.872C387.144 539.128 375.419 537.674 362.459 536.511C349.499 535.348 334.688 534.767 318.025 534.767C301.362 534.767 281.614 535.93 258.779 538.256Z" fill="#ffffff" fill-rule="evenodd" opacity="1" stroke="none"/>
</g>
<g id="Layer-1" vectornator:layerName="Layer 1">
<text clip-path="url(#TextBounds)" fill="#000000" font-family="WienerMelangeVF-Regular_Bold" font-size="175" opacity="1" stroke="none" text-anchor="start" transform="matrix(1 0 0 1 340.902 215.738)" vectornator:width="739.098" x="0" y="0">
<tspan textLength="699.775" x="0" y="136">Vienna’s
</tspan>
<tspan textLength="629.825" x="0" y="412">Mental 
</tspan>
<tspan textLength="557.025" x="0" y="688">Health
</tspan>
</text>
</g>
</svg>
